<?xml version="1.0" encoding="UTF-8"?>
<!DOCTYPE svg PUBLIC "-//W3C//DTD SVG 1.0//EN" "http://www.w3.org/TR/2001/REC-SVG-20010904/DTD/svg10.dtd">
<!-- Creator: CorelDRAW 2020 (64-Bit) -->
<svg xmlns="http://www.w3.org/2000/svg" xml:space="preserve" width="132mm" height="35mm" version="1.0" style="shape-rendering:geometricPrecision; text-rendering:geometricPrecision; image-rendering:optimizeQuality; fill-rule:evenodd; clip-rule:evenodd"
viewBox="0 0 13200 3500"
 xmlns:xlink="http://www.w3.org/1999/xlink"
 xmlns:xodm="http://www.corel.com/coreldraw/odm/2003">
 <defs>
  <style type="text/css">
   <![CDATA[
    .str0 {stroke:#2B2A29;stroke-width:70.56;stroke-miterlimit:22.9256}
    .fil3 {fill:none}
    .fil0 {fill:#E31E24}
    .fil1 {fill:#FEFEFE;fill-rule:nonzero}
    .fil2 {fill:#E31E24;fill-rule:nonzero}
   ]]>
  </style>
 </defs>
 <g id="Laag_x0020_1">
  <metadata id="CorelCorpID_0Corel-Layer"/>
  <g id="_2689978939632">
   <path class="fil0" d="M612.25 701.6l3461.78 0 0 31.02c-244.73,263.54 -395.83,625.27 -395.83,1024.5 0,399.22 151.1,760.95 395.83,1024.49l0 21.98 -3461.78 0c-151.31,0 -275.11,-131.36 -275.11,-291.93l0 -1518.11c0,-160.59 123.8,-291.95 275.11,-291.95z"/>
   <path class="fil1" d="M1076.81 2486.19l-310.8 0c2.87,-20.37 4.3,-40.05 4.3,-58.7l0 -1118.75c-72.69,57.66 -139.65,88.05 -201.23,90.81l0 -252.76c124.25,-6.9 215.19,-47.99 272.48,-123.61l230.96 0 0 1406.39c0,17.26 1.43,36.25 4.29,56.62z"/>
   <path id="1" class="fil1" d="M2465.73 1763.84c0,248.26 -29.71,430.23 -88.43,546.25 -72.69,142.96 -196.95,214.43 -373.47,214.43 -174.73,0 -297.9,-71.47 -369.15,-214.43 -58.73,-117.4 -88.1,-299.37 -88.1,-546.25 0,-222.72 23.28,-391.91 69.47,-507.93 69.82,-183.35 199.8,-275.2 389.94,-275.2 190.48,0 320.47,91.85 390.28,275.2 46.19,116.02 69.46,285.21 69.46,507.93zm-312.59 -6.22c0,-211.66 -2.14,-333.9 -6.43,-366.01 -16.84,-110.84 -63.75,-166.09 -140.72,-166.09 -76.99,0 -122.82,55.25 -138.22,166.09 -5.73,32.11 -8.59,154.35 -8.59,366.01 0,209.25 2.86,329.07 8.59,360.14 13.97,105.32 60.15,157.8 138.22,157.8 78.41,0 125.32,-52.48 140.72,-157.8 4.29,-31.07 6.43,-150.89 6.43,-360.14z"/>
   <path id="2" class="fil1" d="M3539.92 1763.84c0,248.26 -29.71,430.23 -88.44,546.25 -72.69,142.96 -196.94,214.43 -373.46,214.43 -174.73,0 -297.91,-71.47 -369.16,-214.43 -58.72,-117.4 -88.09,-299.37 -88.09,-546.25 0,-222.72 23.28,-391.91 69.47,-507.93 69.82,-183.35 199.79,-275.2 389.93,-275.2 190.49,0 320.47,91.85 390.29,275.2 46.19,116.02 69.46,285.21 69.46,507.93zm-312.59 -6.22c0,-211.66 -2.15,-333.9 -6.44,-366.01 -16.83,-110.84 -63.74,-166.09 -140.72,-166.09 -76.98,0 -122.82,55.25 -138.22,166.09 -5.72,32.11 -8.58,154.35 -8.58,366.01 0,209.25 2.86,329.07 8.58,360.14 13.97,105.32 60.16,157.8 138.22,157.8 78.42,0 125.32,-52.48 140.72,-157.8 4.29,-31.07 6.44,-150.89 6.44,-360.14z"/>
   <circle class="fil0" cx="5557.89" cy="1752.6" r="1459.72"/>
   <polygon class="fil2" points="8198.8,1010.97 8472.16,1010.97 8472.16,2589.25 8198.8,2589.25 8198.8,1934.07 7602.54,1934.07 7602.54,2589.25 7329.18,2589.25 7329.18,1010.97 7602.54,1010.97 7602.54,1641.79 8198.8,1641.79 "/>
   <path id="1" class="fil2" d="M9135.77 1456.69c116.22,0 203.71,28.01 262.48,84.03 58.76,56.01 88.14,148.16 88.14,276.44l0 772.09 -228.13 0 -21.46 -85.25c-48.86,43.84 -97.72,74.7 -145.93,92.56 -48.53,17.86 -99.38,26.79 -152.2,26.79 -55.79,0 -104.66,-12.99 -147.24,-38.97 -42.26,-25.98 -74.95,-62.11 -98.39,-108.39 -23.11,-46.27 -34.67,-99.45 -34.67,-159.53 0,-128.28 51.84,-226.11 155.17,-293.49 103.34,-67.39 238.37,-105.14 405.43,-113.26l0 -26.79c0,-45.46 -3.63,-81.19 -10.89,-107.17 -7.26,-25.98 -20.14,-45.06 -38.96,-57.23 -18.49,-12.18 -44.24,-18.27 -77.26,-18.27 -83.52,0 -178.61,41.4 -284.59,124.22l-103.34 -199.73c71.32,-56.83 140.98,-99.04 208.99,-126.65 68.01,-27.6 142.3,-41.4 222.85,-41.4zm-200.07 818.37c0,35.72 8.58,62.92 26.08,81.59 17.5,18.67 42.92,28.01 76.27,28.01 55.13,0 115.22,-21.92 180.92,-65.76l0 -211.9c-97.72,6.49 -169.37,25.17 -214.93,56.02 -45.56,30.85 -68.34,68.19 -68.34,112.04z"/>
   <path id="2" class="fil2" d="M10116.32 1456.69c116.22,0 203.71,28.01 262.48,84.03 58.76,56.01 88.14,148.16 88.14,276.44l0 772.09 -228.13 0 -21.46 -85.25c-48.86,43.84 -97.72,74.7 -145.93,92.56 -48.53,17.86 -99.38,26.79 -152.2,26.79 -55.79,0 -104.66,-12.99 -147.24,-38.97 -42.26,-25.98 -74.95,-62.11 -98.39,-108.39 -23.11,-46.27 -34.67,-99.45 -34.67,-159.53 0,-128.28 51.84,-226.11 155.17,-293.49 103.34,-67.39 238.37,-105.14 405.43,-113.26l0 -26.79c0,-45.46 -3.63,-81.19 -10.89,-107.17 -7.27,-25.98 -20.14,-45.06 -38.96,-57.23 -18.49,-12.18 -44.24,-18.27 -77.26,-18.27 -83.52,0 -178.61,41.4 -284.59,124.22l-103.34 -199.73c71.32,-56.83 140.98,-99.04 208.99,-126.65 68.01,-27.6 142.3,-41.4 222.85,-41.4zm-200.07 818.37c0,35.72 8.58,62.92 26.08,81.59 17.5,18.67 42.92,28.01 76.27,28.01 55.13,0 115.22,-21.92 180.92,-65.76l0 -211.9c-97.72,6.49 -169.37,25.17 -214.93,56.02 -45.56,30.85 -68.34,68.19 -68.34,112.04z"/>
   <path id="3" class="fil2" d="M11209.13 1456.69c38.62,0 74.28,7.3 107.62,21.92l-39.95 333.68c-21.13,-9.75 -40.27,-17.05 -57.78,-21.92 -17.16,-4.87 -36.97,-7.31 -59.75,-7.31 -34.34,0 -68.01,10.15 -100.36,30.45 -32.69,20.29 -64.72,56.42 -96.74,108.38l0 667.36 -267.42 0 0 -1088.72 267.42 -31.67 0 153.45c66.36,-110.42 148.9,-165.62 246.96,-165.62z"/>
   <polygon id="4" class="fil2" points="11459.37,2589.25 11459.37,913.54 11726.8,881.88 11726.8,2589.25 "/>
   <path id="5" class="fil2" d="M12756.88 1941.38c0,32.47 -2.65,89.3 -7.93,170.49l-570.51 0c7.93,90.93 32.37,157.91 73.3,200.94 40.94,43.03 89.81,64.54 146.59,64.54 42.26,0 83.19,-7.31 122.82,-21.92 39.61,-14.61 81.87,-38.16 126.78,-70.63l91.11 199.72c-47.54,43.84 -102.34,77.94 -164.41,102.29 -62.07,24.36 -129.42,36.54 -202.06,36.54 -87.15,0 -165.4,-19.49 -234.73,-58.46 -69.33,-38.97 -124.8,-101.07 -166.4,-186.32 -41.6,-85.25 -62.4,-195.26 -62.4,-330.03 0,-123.4 17.5,-229.76 52.49,-319.06 35,-89.31 85.85,-157.1 152.54,-203.38 66.69,-46.27 145.59,-69.41 236.71,-69.41 87.17,0 161.45,21.11 222.86,63.32 61.4,42.22 107.3,99.86 137.68,172.93 30.37,73.07 45.56,155.88 45.56,248.44zm-406.42 -260.62c-44.57,0 -80.56,17.46 -107.96,52.37 -27.07,34.91 -45.89,89.71 -56.13,164.4l303.08 0 0 -7.3c0,-74.7 -12.55,-128.28 -37.97,-160.75 -25.42,-32.48 -59.09,-48.72 -101.02,-48.72z"/>
   <path class="fil1" d="M4907.96 1766.55c-140.44,0 -252.45,-48.51 -334.9,-146.06 -82.44,-97.04 -123.95,-226.07 -123.95,-387.11 0,-164.65 42.65,-293.68 127.37,-387.62 84.71,-94.45 197.3,-141.42 338.3,-141.42 146.13,0 259.28,50.07 338.88,150.2 80.18,100.13 119.98,229.68 119.98,387.62 0,161.03 -42.64,289.03 -127.94,382.97 -85.29,94.45 -197.86,141.42 -337.74,141.42zm1.14 -226.07c77.89,0 116.56,-100.64 116.56,-301.42 0,-91.36 -7.39,-165.68 -22.18,-222.97 -14.78,-57.29 -46.05,-85.68 -92.67,-85.68 -75.63,0 -113.72,97.03 -113.72,290.58 0,119.75 7.96,202.85 23.88,249.3 15.92,46.97 45.48,70.19 88.13,70.19zm1491.4 -820.66l-1378.25 2065.59 -313.87 0 1386.22 -2065.59 305.9 0zm-200.14 2081.07c-139.87,0 -251.31,-48.51 -334.33,-145.55 -82.45,-97.03 -123.96,-226.07 -123.96,-387.1 0,-164.13 42.09,-293.17 126.8,-387.62 84.15,-94.45 196.74,-141.94 337.75,-141.94 137.03,0 247.33,46.97 332.62,140.91 84.71,94.45 127.36,226.58 127.36,397.94 0,159.49 -42.65,286.97 -128.5,381.43 -85.28,94.45 -197.87,141.93 -337.74,141.93zm1.71 -226.06c77.89,0 116.56,-100.14 116.56,-300.4 0,-91.35 -7.39,-165.68 -21.62,-223.48 -14.21,-57.3 -44.91,-86.2 -92.1,-86.2 -76.76,0 -114.86,96 -114.86,288.52 0,122.33 7.97,206.46 23.89,252.39 15.91,45.94 45.48,69.17 88.13,69.17z"/>
   <path class="fil3 str0" d="M6775.51 587.55l5994.32 0c192.69,0 350.32,157.64 350.32,350.31l0 1634.94c0,192.67 -157.63,350.31 -350.32,350.31l-5999.51 0c-308.27,322.13 -742.44,522.76 -1223.5,522.76 -421.42,0 -806.86,-153.99 -1103.19,-408.73l-4021.44 0c-192.68,0 -350.33,-157.65 -350.33,-350.32l0 -1868.46c0,-192.67 157.65,-350.33 350.33,-350.33l4021.47 0c296.34,-254.72 681.75,-408.71 1103.16,-408.71 483.77,0 920.12,202.91 1228.69,528.23z"/>
  </g>
 </g>
</svg>
